<svg enable-background="new 0 0 1500 1000" viewBox="0 0 1500 1000" xmlns="http://www.w3.org/2000/svg"><g fill="#fff"><g opacity=".5"><circle cx="25.25" cy="21" r=".5"/><circle cx="222.25" cy="87" r=".5"/><circle cx="552.25" cy="127" r=".5"/><circle cx="632.25" cy="77" r=".5"/><circle cx="949.25" cy="160" r=".5"/><circle cx="559.25" cy="220" r=".5"/><circle cx="1019.25" cy="280" r=".5"/><circle cx="409.25" cy="200" r=".5"/><circle cx="485.5" cy="30" r=".5"/><circle cx="682.5" cy="96" r=".5"/><circle cx="1012.5" cy="136" r=".5"/><circle cx="1092.5" cy="86" r=".5"/><circle cx="1409.5" cy="169" r=".5"/><circle cx="1019.5" cy="229" r=".5"/><circle cx="1479.5" cy="289" r=".5"/><circle cx="869.5" cy="209" r=".5"/><circle cx="146.5" cy="16" r=".5"/><circle cx="873.5" cy="89" r=".5"/><circle cx="333.5" cy="129" r=".5"/><circle cx="46.5" cy="136" r=".5"/><circle cx="773.5" cy="209" r=".5"/><circle cx="233.5" cy="249" r=".5"/><circle cx="766.5" cy="-4" r=".5"/><circle cx="1493.5" cy="69" r=".5"/><circle cx="953.5" cy="109" r=".5"/><circle cx="1067.25" cy="232" r=".5"/><circle cx="1377.5" cy="221" r=".5"/><circle cx="841.5" cy="141" r=".5"/><circle cx="1274.5" cy="8" r=".5"/><circle cx="1439.5" cy="73" r=".5"/><circle cx="1242.5" cy="139" r=".5"/><circle cx="912.5" cy="179" r=".5"/><circle cx="832.5" cy="129" r=".5"/><circle cx="515.5" cy="212" r=".5"/><circle cx="905.5" cy="272" r=".5"/><circle cx="445.5" cy="332" r=".5"/><circle cx="1055.5" cy="252" r=".5"/><circle cx="979.25" cy="82" r=".5"/><circle cx="782.25" cy="148" r=".5"/><circle cx="452.25" cy="188" r=".5"/><circle cx="372.25" cy="138" r=".5"/><circle cx="55.25" cy="221" r=".5"/><circle cx="445.25" cy="281" r=".5"/><circle cx="-14.75" cy="341" r=".5"/><circle cx="595.25" cy="261" r=".5"/><circle cx="1318.25" cy="68" r=".5"/><circle cx="591.25" cy="141" r=".5"/><circle cx="1131.25" cy="181" r=".5"/><circle cx="1418.25" cy="188" r=".5"/><circle cx="691.25" cy="261" r=".5"/><circle cx="1231.25" cy="301" r=".5"/><circle cx="698.25" cy="48" r=".5"/><circle cx="511.25" cy="161" r=".5"/><circle cx="397.5" cy="284" r=".5"/><circle cx="87.25" cy="273" r=".5"/><circle cx="623.25" cy="193" r=".5"/><circle cx="190.25" cy="60" r=".5"/><circle cx="262.5" cy="164" r=".5"/><circle cx="886.5" cy="24" r=".5"/><circle cx="460.25" cy="187" r=".5"/><circle cx="305.5" cy="134" r=".5"/><circle cx="298.5" cy="227" r=".5"/><circle cx="711.25" cy="23" r=".5"/><circle cx="524.25" cy="136" r=".5"/><circle cx="624.25" cy="256" r=".5"/><circle cx="16.25" cy="148" r=".5"/></g><g opacity=".3"><circle cx="112.25" cy="127" r=".5"/><circle cx="192.25" cy="77" r=".5"/><circle cx="509.25" cy="160" r=".5"/><circle cx="119.25" cy="220" r=".5"/><circle cx="579.25" cy="280" r=".5"/><circle cx="45.5" cy="30" r=".5"/><circle cx="242.5" cy="96" r=".5"/><circle cx="572.5" cy="136" r=".5"/><circle cx="652.5" cy="86" r=".5"/><circle cx="969.5" cy="169" r=".5"/><circle cx="579.5" cy="229" r=".5"/><circle cx="1039.5" cy="289" r=".5"/><circle cx="429.5" cy="209" r=".5"/><circle cx="433.5" cy="89" r=".5"/><circle cx="333.5" cy="209" r=".5"/><circle cx="326.5" cy="-4" r=".5"/><circle cx="1053.5" cy="69" r=".5"/><circle cx="513.5" cy="109" r=".5"/><circle cx="627.25" cy="232" r=".5"/><circle cx="937.5" cy="221" r=".5"/><circle cx="401.5" cy="141" r=".5"/><circle cx="834.5" cy="8" r=".5"/><circle cx="999.5" cy="73" r=".5"/><circle cx="802.5" cy="139" r=".5"/><circle cx="472.5" cy="179" r=".5"/><circle cx="392.5" cy="129" r=".5"/><circle cx="75.5" cy="212" r=".5"/><circle cx="465.5" cy="272" r=".5"/><circle cx="5.5" cy="332" r=".5"/><circle cx="615.5" cy="252" r=".5"/><circle cx="539.25" cy="82" r=".5"/><circle cx="342.25" cy="148" r=".5"/><circle cx="12.25" cy="188" r=".5"/><circle cx="5.25" cy="281" r=".5"/><circle cx="155.25" cy="261" r=".5"/><circle cx="878.25" cy="68" r=".5"/><circle cx="151.25" cy="141" r=".5"/><circle cx="691.25" cy="181" r=".5"/><circle cx="978.25" cy="188" r=".5"/><circle cx="251.25" cy="261" r=".5"/><circle cx="791.25" cy="301" r=".5"/><circle cx="258.25" cy="48" r=".5"/><circle cx="71.25" cy="161" r=".5"/><circle cx="183.25" cy="193" r=".5"/><circle cx="446.5" cy="24" r=".5"/><circle cx="20.25" cy="187" r=".5"/><circle cx="271.25" cy="23" r=".5"/><circle cx="84.25" cy="136" r=".5"/><circle cx="184.25" cy="256" r=".5"/></g><g opacity=".3"><circle cx="735.25" cy="21" r=".5"/><circle cx="932.25" cy="87" r=".5"/><circle cx="1262.25" cy="127" r=".5"/><circle cx="1342.25" cy="77" r=".5"/><circle cx="1269.25" cy="220" r=".5"/><circle cx="1119.25" cy="200" r=".5"/><circle cx="1195.5" cy="30" r=".5"/><circle cx="1392.5" cy="96" r=".5"/><circle cx="856.5" cy="16" r=".5"/><circle cx="1043.5" cy="129" r=".5"/><circle cx="756.5" cy="136" r=".5"/><circle cx="1483.5" cy="209" r=".5"/><circle cx="943.5" cy="249" r=".5"/><circle cx="1476.5" cy="-4" r=".5"/><circle cx="1225.5" cy="212" r=".5"/><circle cx="1155.5" cy="332" r=".5"/><circle cx="1492.25" cy="148" r=".5"/><circle cx="1162.25" cy="188" r=".5"/><circle cx="1082.25" cy="138" r=".5"/><circle cx="765.25" cy="221" r=".5"/><circle cx="1155.25" cy="281" r=".5"/><circle cx="695.25" cy="341" r=".5"/><circle cx="1305.25" cy="261" r=".5"/><circle cx="1301.25" cy="141" r=".5"/><circle cx="1401.25" cy="261" r=".5"/><circle cx="1408.25" cy="48" r=".5"/><circle cx="1221.25" cy="161" r=".5"/><circle cx="1107.5" cy="284" r=".5"/><circle cx="797.25" cy="273" r=".5"/><circle cx="1333.25" cy="193" r=".5"/><circle cx="900.25" cy="60" r=".5"/><circle cx="972.5" cy="164" r=".5"/><circle cx="1170.25" cy="187" r=".5"/><circle cx="1015.5" cy="134" r=".5"/><circle cx="1008.5" cy="227" r=".5"/><circle cx="1421.25" cy="23" r=".5"/><circle cx="1234.25" cy="136" r=".5"/><circle cx="1334.25" cy="256" r=".5"/><circle cx="726.25" cy="148" r=".5"/></g><g opacity=".25"><circle cx="25.25" cy="181" r=".5"/><circle cx="222.25" cy="247" r=".5"/><circle cx="552.25" cy="287" r=".5"/><circle cx="632.25" cy="237" r=".5"/><circle cx="949.25" cy="320" r=".5"/><circle cx="559.25" cy="380" r=".5"/><circle cx="1019.25" cy="440" r=".5"/><circle cx="409.25" cy="360" r=".5"/><circle cx="485.5" cy="190" r=".5"/><circle cx="682.5" cy="256" r=".5"/><circle cx="1012.5" cy="296" r=".5"/><circle cx="1092.5" cy="246" r=".5"/><circle cx="1409.5" cy="329" r=".5"/><circle cx="1019.5" cy="389" r=".5"/><circle cx="1479.5" cy="449" r=".5"/><circle cx="869.5" cy="369" r=".5"/><circle cx="146.5" cy="176" r=".5"/><circle cx="873.5" cy="249" r=".5"/><circle cx="333.5" cy="289" r=".5"/><circle cx="46.5" cy="296" r=".5"/><circle cx="773.5" cy="369" r=".5"/><circle cx="233.5" cy="409" r=".5"/><circle cx="766.5" cy="156" r=".5"/><circle cx="1493.5" cy="229" r=".5"/><circle cx="953.5" cy="269" r=".5"/><circle cx="1067.25" cy="392" r=".5"/><circle cx="1377.5" cy="381" r=".5"/><circle cx="841.5" cy="301" r=".5"/><circle cx="1274.5" cy="168" r=".5"/><circle cx="1439.5" cy="233" r=".5"/><circle cx="1242.5" cy="299" r=".5"/><circle cx="912.5" cy="339" r=".5"/><circle cx="832.5" cy="289" r=".5"/><circle cx="515.5" cy="372" r=".5"/><circle cx="905.5" cy="432" r=".5"/><circle cx="445.5" cy="492" r=".5"/><circle cx="1055.5" cy="412" r=".5"/><circle cx="979.25" cy="242" r=".5"/><circle cx="782.25" cy="308" r=".5"/><circle cx="452.25" cy="348" r=".5"/><circle cx="372.25" cy="298" r=".5"/><circle cx="55.25" cy="381" r=".5"/><circle cx="445.25" cy="441" r=".5"/><circle cx="-14.75" cy="501" r=".5"/><circle cx="595.25" cy="421" r=".5"/><circle cx="1318.25" cy="228" r=".5"/><circle cx="591.25" cy="301" r=".5"/><circle cx="1131.25" cy="341" r=".5"/><circle cx="1418.25" cy="348" r=".5"/><circle cx="691.25" cy="421" r=".5"/><circle cx="1231.25" cy="461" r=".5"/><circle cx="698.25" cy="208" r=".5"/><circle cx="511.25" cy="321" r=".5"/><circle cx="397.5" cy="444" r=".5"/><circle cx="87.25" cy="433" r=".5"/><circle cx="623.25" cy="353" r=".5"/><circle cx="190.25" cy="220" r=".5"/><circle cx="262.5" cy="324" r=".5"/><circle cx="886.5" cy="184" r=".5"/><circle cx="460.25" cy="347" r=".5"/><circle cx="305.5" cy="294" r=".5"/><circle cx="298.5" cy="387" r=".5"/><circle cx="711.25" cy="183" r=".5"/><circle cx="524.25" cy="296" r=".5"/><circle cx="624.25" cy="416" r=".5"/><circle cx="16.25" cy="308" r=".5"/></g><g opacity=".15"><circle cx="227.123" cy="93.242" r=".5"/><circle cx="281.297" cy="16.008" r=".5"/><circle cx="269.828" cy="176.153" r=".5"/><circle cx="716.818" cy="52.056" r=".5"/><circle cx="123.901" cy="216.219" r=".5"/><circle cx="127.836" cy="29.944" r=".5"/><circle cx="334.978" cy="13.912" r=".5"/><circle cx="697.164" cy="4.995" r=".5"/><circle cx="551.237" cy="45.061" r=".5"/><circle cx="26.464" cy="180.372" r=".5"/><circle cx="462.834" cy="82.49" r=".5"/><circle cx="-18.836" cy="329.864" r=".5"/><circle cx="742.305" cy="-10.86" r=".5"/><circle cx="498.94" cy="-6.641" r=".5"/><circle cx="579.137" cy=".67" r=".5"/><circle cx="485.974" cy="-14.182" r=".5"/><circle cx="226.421" cy="185.844" r=".5"/><circle cx="608.951" cy="89.039" r=".5"/><circle cx="208.748" cy="323.639" r=".5"/><circle cx="739.282" cy="12.138" r=".5"/><circle cx="447.108" cy="22.906" r=".5"/><circle cx="158.82" cy="188.404" r=".5"/><circle cx="65.656" cy="173.552" r=".5"/><circle cx="188.633" cy="276.773" r=".5"/><circle cx="318.965" cy="199.872" r=".5"/><circle cx="268.495" cy="90.929" r=".5"/><circle cx="407.367" cy="162.443" r=".5"/><circle cx="920.229" cy="-11.262" r=".5"/><circle cx="202.623" cy="140.537" r=".5"/><circle cx="145.832" cy="298.153" r=".5"/><circle cx="318.236" cy="126.337" r=".5"/><circle cx="-25.271" cy="240.284" r=".5"/><circle cx="165.797" cy="184.364" r=".5"/><circle cx="2.629" cy="195.893" r=".5"/><circle cx="32.443" cy="284.263" r=".5"/><circle cx="204.847" cy="112.447" r=".5"/><circle cx="343.72" cy="183.961" r=".5"/></g><g opacity=".15"><circle cx="1267.871" cy="27.319" r=".5"/><circle cx="1362.088" cy="32.143" r=".5"/><circle cx="1220.352" cy="107.568" r=".5"/><circle cx="1108.837" cy="5.273" r=".5"/><circle cx="1392.402" cy="76.495" r=".5"/><circle cx="1480.992" cy="276.219" r=".5"/><circle cx="1402.292" cy="221.244" r=".5"/><circle cx="1518.53" cy="42.62" r=".5"/><circle cx="1496.979" cy="204.439" r=".5"/><circle cx="1496.472" cy="189.448" r=".5"/><circle cx="1189.068" cy="75.956" r=".5"/><circle cx="1474.426" cy="348.482" r=".5"/><circle cx="1062.963" cy="134.244" r=".5"/><circle cx="1444.397" cy="176.247" r=".5"/><circle cx="1150.96" cy="20.06" r=".5"/><circle cx="1091.964" cy="92.292" r=".5"/><circle cx="1226.385" cy="161.796" r=".5"/><circle cx="1291.826" cy="61.13" r=".5"/><circle cx="1305.085" cy="216.771" r=".5"/><circle cx="1432.801" cy="46.164" r=".5"/><circle cx="1214.789" cy="31.713" r=".5"/><circle cx="1051.101" cy="67.407" r=".5"/><circle cx="1288.281" cy="122.084" r=".5"/><circle cx="1158.091" cy="23.822" r=".5"/><circle cx="1457.775" cy="33.114" r=".5"/><circle cx="1239.763" cy="18.663" r=".5"/><circle cx="1253.023" cy="174.304" r=".5"/></g><g opacity=".25"><circle cx="919.5" cy="30" r=".5"/><circle cx="459.5" cy="90" r=".5"/><circle cx="1069.5" cy="10" r=".5"/><circle cx="69.25" cy="-21" r=".5"/><circle cx="459.25" cy="39" r=".5"/><circle cx="-.75" cy="99" r=".5"/><circle cx="609.25" cy="19" r=".5"/><circle cx="705.25" cy="19" r=".5"/><circle cx="1245.25" cy="59" r=".5"/><circle cx="411.5" cy="42" r=".5"/><circle cx="101.25" cy="31" r=".5"/><circle cx="566.25" cy="-11" r=".5"/><circle cx="963.25" cy="22" r=".5"/><circle cx="573.25" cy="82" r=".5"/><circle cx="1033.25" cy="142" r=".5"/><circle cx="423.25" cy="62" r=".5"/><circle cx="1026.5" cy="-2" r=".5"/><circle cx="1423.5" cy="31" r=".5"/><circle cx="1033.5" cy="91" r=".5"/><circle cx="1493.5" cy="151" r=".5"/><circle cx="883.5" cy="71" r=".5"/><circle cx="347.5" cy="-9" r=".5"/><circle cx="60.5" cy="-2" r=".5"/><circle cx="787.5" cy="71" r=".5"/><circle cx="247.5" cy="111" r=".5"/><circle cx="1081.25" cy="94" r=".5"/><circle cx="1391.5" cy="83" r=".5"/><circle cx="855.5" cy="3" r=".5"/><circle cx="1018.5" cy="-3" r=".5"/><circle cx="1180.25" cy="37" r=".5"/><circle cx="854.5" cy="66" r=".5"/></g><g opacity=".25"><circle cx="343.25" cy="61.5" r=".5"/><circle cx="803.25" cy="121.5" r=".5"/><circle cx="193.25" cy="41.5" r=".5"/><circle cx="1193.5" cy="10.5" r=".5"/><circle cx="803.5" cy="70.5" r=".5"/><circle cx="1263.5" cy="130.5" r=".5"/><circle cx="653.5" cy="50.5" r=".5"/><circle cx="557.5" cy="50.5" r=".5"/><circle cx="17.5" cy="90.5" r=".5"/><circle cx="851.25" cy="73.5" r=".5"/><circle cx="1161.5" cy="62.5" r=".5"/><circle cx="696.5" cy="20.5" r=".5"/><circle cx="299.5" cy="53.5" r=".5"/><circle cx="689.5" cy="113.5" r=".5"/><circle cx="229.5" cy="173.5" r=".5"/><circle cx="839.5" cy="93.5" r=".5"/><circle cx="236.25" cy="29.5" r=".5"/><circle cx="229.25" cy="122.5" r=".5"/><circle cx="379.25" cy="102.5" r=".5"/><circle cx="915.25" cy="22.5" r=".5"/><circle cx="1202.25" cy="29.5" r=".5"/><circle cx="475.25" cy="102.5" r=".5"/><circle cx="1015.25" cy="142.5" r=".5"/><circle cx="181.5" cy="125.5" r=".5"/><circle cx="407.25" cy="34.5" r=".5"/><circle cx="244.25" cy="28.5" r=".5"/><circle cx="82.5" cy="68.5" r=".5"/><circle cx="408.25" cy="97.5" r=".5"/></g><g opacity=".25"><circle cx="1074.5" cy="61.5" r=".5"/><circle cx="924.5" cy="41.5" r=".5"/><circle cx="1384.75" cy="50.5" r=".5"/><circle cx="1288.75" cy="50.5" r=".5"/><circle cx="748.75" cy="90.5" r=".5"/><circle cx="1427.75" cy="20.5" r=".5"/><circle cx="1030.75" cy="53.5" r=".5"/><circle cx="1420.75" cy="113.5" r=".5"/><circle cx="960.75" cy="173.5" r=".5"/><circle cx="967.5" cy="29.5" r=".5"/><circle cx="570.5" cy="62.5" r=".5"/><circle cx="960.5" cy="122.5" r=".5"/><circle cx="500.5" cy="182.5" r=".5"/><circle cx="1110.5" cy="102.5" r=".5"/><circle cx="1206.5" cy="102.5" r=".5"/><circle cx="912.75" cy="125.5" r=".5"/><circle cx="602.5" cy="114.5" r=".5"/><circle cx="1138.5" cy="34.5" r=".5"/><circle cx="975.5" cy="28.5" r=".5"/><circle cx="813.75" cy="68.5" r=".5"/><circle cx="1139.5" cy="97.5" r=".5"/></g><g opacity=".25"><circle cx="911.274" cy="309.647" r=".5"/><circle cx="457.547" cy="213.045" r=".5"/><circle cx="1059.374" cy="340.738" r=".5"/><circle cx="126.532" cy="-21.571" r=".5"/><circle cx="474.294" cy="164.873" r=".5"/><circle cx="20.568" cy="68.271" r=".5"/><circle cx="622.394" cy="195.963" r=".5"/><circle cx="712.915" cy="227.931" r=".5"/><circle cx="1208.776" cy="445.465" r=".5"/><circle cx="428.271" cy="151.801" r=".5"/><circle cx="139.39" cy="38.117" r=".5"/><circle cx="591.838" cy="153.357" r=".5"/><circle cx="955.191" cy="316.672" r=".5"/><circle cx="567.47" cy="243.38" r=".5"/><circle cx="981.237" cy="453.133" r=".5"/><circle cx="432.69" cy="174.572" r=".5"/><circle cx="1022.824" cy="315.104" r=".5"/><circle cx="1386.177" cy="478.419" r=".5"/><circle cx="998.456" cy="405.127" r=".5"/><circle cx="1412.223" cy="614.88" r=".5"/><circle cx="863.676" cy="336.319" r=".5"/><circle cx="384.906" cy="82.4" r=".5"/><circle cx="111.954" cy="-6.569" r=".5"/><circle cx="773.155" cy="304.352" r=".5"/><circle cx="250.654" cy="162.252" r=".5"/><circle cx="1042.481" cy="423.857" r=".5"/><circle cx="1338.688" cy="516.796" r=".5"/><circle cx="859.918" cy="262.876" r=".5"/><circle cx="1015.613" cy="311.497" r=".5"/><circle cx="1154.812" cy="403.076" r=".5"/><circle cx="837.996" cy="321.948" r=".5"/></g><g opacity=".5"><circle cx="165" cy="532" r="1"/><circle cx="721" cy="410" r="1"/><circle cx="941" cy="190" r="1"/><circle cx="511" cy="200" r="1"/><circle cx="1311" cy="370" r="1"/><circle cx="1001" cy="330" r="1"/><circle cx="281" cy="360" r="1"/><circle cx="201" cy="140" r="1"/><circle cx="1524" cy="343" r="1"/><circle cx="968" cy="221" r="1"/><circle cx="748" cy="1" r="1"/><circle cx="1178" cy="11" r="1"/><circle cx="378" cy="181" r="1"/><circle cx="688" cy="141" r="1"/><circle cx="1408" cy="171" r="1"/><circle cx="458" cy="41" r="1"/><circle cx="888" cy="51" r="1"/><circle cx="398" cy="181" r="1"/><circle cx="1198" cy="-9" r="1"/><circle cx="431" cy="72" r="1"/><circle cx="1021" cy="32" r="1"/><circle cx="711" cy="-8" r="1"/><circle cx="-9" cy="22" r="1"/><circle cx="318" cy="54" r="1"/><circle cx="518" cy="14" r="1"/><circle cx="648" cy="-6" r="1"/><circle cx="208" cy="4" r="1"/><circle cx="68" cy="84" r="1"/><circle cx="730" cy="99" r="1"/><circle cx="820" cy="89" r="1"/><circle cx="770" cy="39" r="1"/><circle cx="960" cy="39" r="1"/><circle cx="1060" cy="99" r="1"/><circle cx="1358" cy="65" r="1"/><circle cx="1378" cy="45" r="1"/><circle cx="1068" cy="5" r="1"/><circle cx="1088" cy="-15" r="1"/><circle cx="1205" cy="106" r="1"/><circle cx="1144" cy="113" r="1"/><circle cx="1244" cy="173" r="1"/><circle cx="1252" cy="79" r="1"/></g></g></svg>